<mxfile host="Electron" modified="2024-01-09T11:15:29.317Z" agent="Mozilla/5.0 (Windows NT 10.0; Win64; x64) AppleWebKit/537.36 (KHTML, like Gecko) draw.io/21.6.8 Chrome/114.0.5735.289 Electron/25.5.0 Safari/537.36" etag="ZryrKlNv4eWpEWFRcYkw" version="21.6.8" type="device">
  <diagram name="第 1 页" id="Q2Jh27eDjDmEeQ4GB_bA">
    <mxGraphModel dx="1928" dy="1037" grid="1" gridSize="10" guides="1" tooltips="1" connect="1" arrows="1" fold="1" page="1" pageScale="1" pageWidth="827" pageHeight="1169" math="0" shadow="0">
      <root>
        <mxCell id="0" />
        <mxCell id="1" parent="0" />
        <mxCell id="BkBA8HMrl6zZzfXARDVv-1" value="" style="rounded=1;whiteSpace=wrap;html=1;arcSize=5;" vertex="1" parent="1">
          <mxGeometry x="-90" y="230" width="380" height="280" as="geometry" />
        </mxCell>
        <mxCell id="BkBA8HMrl6zZzfXARDVv-2" value="" style="rounded=1;whiteSpace=wrap;html=1;arcSize=5;" vertex="1" parent="1">
          <mxGeometry x="400" y="230" width="380" height="280" as="geometry" />
        </mxCell>
        <mxCell id="BkBA8HMrl6zZzfXARDVv-3" value="" style="rounded=1;whiteSpace=wrap;html=1;" vertex="1" parent="1">
          <mxGeometry x="-5" y="430" width="180" height="56" as="geometry" />
        </mxCell>
        <mxCell id="BkBA8HMrl6zZzfXARDVv-4" value="" style="sketch=0;html=1;dashed=0;whitespace=wrap;fillColor=#2875E2;strokeColor=#ffffff;points=[[0.005,0.63,0],[0.1,0.2,0],[0.9,0.2,0],[0.5,0,0],[0.995,0.63,0],[0.72,0.99,0],[0.5,1,0],[0.28,0.99,0]];verticalLabelPosition=bottom;align=center;verticalAlign=top;shape=mxgraph.kubernetes.icon;prIcon=pod" vertex="1" parent="1">
          <mxGeometry x="5" y="434" width="50" height="48" as="geometry" />
        </mxCell>
        <mxCell id="BkBA8HMrl6zZzfXARDVv-5" style="edgeStyle=orthogonalEdgeStyle;rounded=0;orthogonalLoop=1;jettySize=auto;html=1;entryX=0.5;entryY=0;entryDx=0;entryDy=0;" edge="1" parent="1" source="BkBA8HMrl6zZzfXARDVv-9" target="BkBA8HMrl6zZzfXARDVv-3">
          <mxGeometry relative="1" as="geometry" />
        </mxCell>
        <mxCell id="BkBA8HMrl6zZzfXARDVv-6" value="route" style="edgeLabel;html=1;align=center;verticalAlign=middle;resizable=0;points=[];" vertex="1" connectable="0" parent="BkBA8HMrl6zZzfXARDVv-5">
          <mxGeometry x="-0.1819" y="-1" relative="1" as="geometry">
            <mxPoint as="offset" />
          </mxGeometry>
        </mxCell>
        <mxCell id="BkBA8HMrl6zZzfXARDVv-7" style="edgeStyle=orthogonalEdgeStyle;rounded=0;orthogonalLoop=1;jettySize=auto;html=1;entryX=0.5;entryY=0;entryDx=0;entryDy=0;" edge="1" parent="1" source="BkBA8HMrl6zZzfXARDVv-9" target="BkBA8HMrl6zZzfXARDVv-13">
          <mxGeometry relative="1" as="geometry" />
        </mxCell>
        <mxCell id="BkBA8HMrl6zZzfXARDVv-8" value="route" style="edgeLabel;html=1;align=center;verticalAlign=middle;resizable=0;points=[];" vertex="1" connectable="0" parent="BkBA8HMrl6zZzfXARDVv-7">
          <mxGeometry x="-0.1419" y="-1" relative="1" as="geometry">
            <mxPoint as="offset" />
          </mxGeometry>
        </mxCell>
        <mxCell id="BkBA8HMrl6zZzfXARDVv-9" value="foo.svc" style="rounded=1;whiteSpace=wrap;html=1;fontSize=24;fillColor=#fff2cc;strokeColor=#d6b656;" vertex="1" parent="1">
          <mxGeometry x="-70" y="330" width="830" height="60" as="geometry" />
        </mxCell>
        <mxCell id="BkBA8HMrl6zZzfXARDVv-10" value="" style="sketch=0;html=1;dashed=0;whitespace=wrap;fillColor=#2875E2;strokeColor=#ffffff;points=[[0.005,0.63,0],[0.1,0.2,0],[0.9,0.2,0],[0.5,0,0],[0.995,0.63,0],[0.72,0.99,0],[0.5,1,0],[0.28,0.99,0]];verticalLabelPosition=bottom;align=center;verticalAlign=top;shape=mxgraph.kubernetes.icon;prIcon=pod" vertex="1" parent="1">
          <mxGeometry x="60" y="434" width="50" height="48" as="geometry" />
        </mxCell>
        <mxCell id="BkBA8HMrl6zZzfXARDVv-11" value="" style="sketch=0;html=1;dashed=0;whitespace=wrap;fillColor=#2875E2;strokeColor=#ffffff;points=[[0.005,0.63,0],[0.1,0.2,0],[0.9,0.2,0],[0.5,0,0],[0.995,0.63,0],[0.72,0.99,0],[0.5,1,0],[0.28,0.99,0]];verticalLabelPosition=bottom;align=center;verticalAlign=top;shape=mxgraph.kubernetes.icon;prIcon=pod" vertex="1" parent="1">
          <mxGeometry x="115" y="434" width="50" height="48" as="geometry" />
        </mxCell>
        <mxCell id="BkBA8HMrl6zZzfXARDVv-12" value="backend pods of foo service" style="text;strokeColor=none;align=center;fillColor=none;html=1;verticalAlign=middle;whiteSpace=wrap;rounded=0;" vertex="1" parent="1">
          <mxGeometry x="-10" y="486" width="190" height="30" as="geometry" />
        </mxCell>
        <mxCell id="BkBA8HMrl6zZzfXARDVv-13" value="" style="rounded=1;whiteSpace=wrap;html=1;" vertex="1" parent="1">
          <mxGeometry x="500" y="430" width="180" height="56" as="geometry" />
        </mxCell>
        <mxCell id="BkBA8HMrl6zZzfXARDVv-14" value="" style="sketch=0;html=1;dashed=0;whitespace=wrap;fillColor=#2875E2;strokeColor=#ffffff;points=[[0.005,0.63,0],[0.1,0.2,0],[0.9,0.2,0],[0.5,0,0],[0.995,0.63,0],[0.72,0.99,0],[0.5,1,0],[0.28,0.99,0]];verticalLabelPosition=bottom;align=center;verticalAlign=top;shape=mxgraph.kubernetes.icon;prIcon=pod" vertex="1" parent="1">
          <mxGeometry x="510" y="434" width="50" height="48" as="geometry" />
        </mxCell>
        <mxCell id="BkBA8HMrl6zZzfXARDVv-15" value="" style="sketch=0;html=1;dashed=0;whitespace=wrap;fillColor=#2875E2;strokeColor=#ffffff;points=[[0.005,0.63,0],[0.1,0.2,0],[0.9,0.2,0],[0.5,0,0],[0.995,0.63,0],[0.72,0.99,0],[0.5,1,0],[0.28,0.99,0]];verticalLabelPosition=bottom;align=center;verticalAlign=top;shape=mxgraph.kubernetes.icon;prIcon=pod" vertex="1" parent="1">
          <mxGeometry x="565" y="434" width="50" height="48" as="geometry" />
        </mxCell>
        <mxCell id="BkBA8HMrl6zZzfXARDVv-16" value="" style="sketch=0;html=1;dashed=0;whitespace=wrap;fillColor=#2875E2;strokeColor=#ffffff;points=[[0.005,0.63,0],[0.1,0.2,0],[0.9,0.2,0],[0.5,0,0],[0.995,0.63,0],[0.72,0.99,0],[0.5,1,0],[0.28,0.99,0]];verticalLabelPosition=bottom;align=center;verticalAlign=top;shape=mxgraph.kubernetes.icon;prIcon=pod" vertex="1" parent="1">
          <mxGeometry x="620" y="434" width="50" height="48" as="geometry" />
        </mxCell>
        <mxCell id="BkBA8HMrl6zZzfXARDVv-17" value="backend pods of foo service" style="text;strokeColor=none;align=center;fillColor=none;html=1;verticalAlign=middle;whiteSpace=wrap;rounded=0;" vertex="1" parent="1">
          <mxGeometry x="495" y="486" width="190" height="30" as="geometry" />
        </mxCell>
        <mxCell id="BkBA8HMrl6zZzfXARDVv-18" style="edgeStyle=orthogonalEdgeStyle;rounded=0;orthogonalLoop=1;jettySize=auto;html=1;" edge="1" parent="1" source="BkBA8HMrl6zZzfXARDVv-20">
          <mxGeometry relative="1" as="geometry">
            <mxPoint x="85.00000000000023" y="330" as="targetPoint" />
            <Array as="points">
              <mxPoint x="85" y="320" />
              <mxPoint x="85" y="320" />
            </Array>
          </mxGeometry>
        </mxCell>
        <mxCell id="BkBA8HMrl6zZzfXARDVv-19" value="access" style="edgeLabel;html=1;align=center;verticalAlign=middle;resizable=0;points=[];fontSize=17;" vertex="1" connectable="0" parent="BkBA8HMrl6zZzfXARDVv-18">
          <mxGeometry x="-0.0068" y="-1" relative="1" as="geometry">
            <mxPoint x="31" y="-9" as="offset" />
          </mxGeometry>
        </mxCell>
        <mxCell id="BkBA8HMrl6zZzfXARDVv-20" value="" style="sketch=0;html=1;dashed=0;whitespace=wrap;fillColor=#2875E2;strokeColor=#ffffff;points=[[0.005,0.63,0],[0.1,0.2,0],[0.9,0.2,0],[0.5,0,0],[0.995,0.63,0],[0.72,0.99,0],[0.5,1,0],[0.28,0.99,0]];verticalLabelPosition=bottom;align=center;verticalAlign=top;shape=mxgraph.kubernetes.icon;prIcon=pod" vertex="1" parent="1">
          <mxGeometry x="60" y="240" width="50" height="48" as="geometry" />
        </mxCell>
        <mxCell id="BkBA8HMrl6zZzfXARDVv-21" value="" style="edgeStyle=orthogonalEdgeStyle;rounded=0;orthogonalLoop=1;jettySize=auto;html=1;" edge="1" parent="1" source="BkBA8HMrl6zZzfXARDVv-22" target="BkBA8HMrl6zZzfXARDVv-9">
          <mxGeometry relative="1" as="geometry">
            <Array as="points">
              <mxPoint x="590" y="320" />
              <mxPoint x="590" y="320" />
            </Array>
          </mxGeometry>
        </mxCell>
        <mxCell id="BkBA8HMrl6zZzfXARDVv-22" value="" style="sketch=0;html=1;dashed=0;whitespace=wrap;fillColor=#2875E2;strokeColor=#ffffff;points=[[0.005,0.63,0],[0.1,0.2,0],[0.9,0.2,0],[0.5,0,0],[0.995,0.63,0],[0.72,0.99,0],[0.5,1,0],[0.28,0.99,0]];verticalLabelPosition=bottom;align=center;verticalAlign=top;shape=mxgraph.kubernetes.icon;prIcon=pod" vertex="1" parent="1">
          <mxGeometry x="565" y="240" width="50" height="48" as="geometry" />
        </mxCell>
        <mxCell id="BkBA8HMrl6zZzfXARDVv-23" value="access" style="edgeLabel;html=1;align=center;verticalAlign=middle;resizable=0;points=[];fontSize=17;" vertex="1" connectable="0" parent="1">
          <mxGeometry x="620.0000000000002" y="300.0033333333335" as="geometry" />
        </mxCell>
        <mxCell id="BkBA8HMrl6zZzfXARDVv-24" value="" style="shape=image;verticalLabelPosition=bottom;labelBackgroundColor=default;verticalAlign=top;aspect=fixed;imageAspect=0;image=https://upload.wikimedia.org/wikipedia/commons/thumb/3/39/Kubernetes_logo_without_workmark.svg/2109px-Kubernetes_logo_without_workmark.svg.png;" vertex="1" parent="1">
          <mxGeometry x="-100" y="481.59" width="40" height="38.83" as="geometry" />
        </mxCell>
        <mxCell id="BkBA8HMrl6zZzfXARDVv-25" value="" style="shape=image;verticalLabelPosition=bottom;labelBackgroundColor=default;verticalAlign=top;aspect=fixed;imageAspect=0;image=https://upload.wikimedia.org/wikipedia/commons/thumb/3/39/Kubernetes_logo_without_workmark.svg/2109px-Kubernetes_logo_without_workmark.svg.png;" vertex="1" parent="1">
          <mxGeometry x="390" y="482" width="40" height="38.83" as="geometry" />
        </mxCell>
        <mxCell id="BkBA8HMrl6zZzfXARDVv-26" value="&lt;font style=&quot;font-size: 14px;&quot;&gt;Cluster 1&lt;/font&gt;" style="text;strokeColor=none;align=center;fillColor=none;html=1;verticalAlign=middle;whiteSpace=wrap;rounded=0;" vertex="1" parent="1">
          <mxGeometry x="-90" y="230" width="60" height="30" as="geometry" />
        </mxCell>
        <mxCell id="BkBA8HMrl6zZzfXARDVv-27" value="&lt;font style=&quot;font-size: 14px;&quot;&gt;Cluster 2&lt;/font&gt;" style="text;strokeColor=none;align=center;fillColor=none;html=1;verticalAlign=middle;whiteSpace=wrap;rounded=0;" vertex="1" parent="1">
          <mxGeometry x="400" y="230" width="60" height="30" as="geometry" />
        </mxCell>
      </root>
    </mxGraphModel>
  </diagram>
</mxfile>
